<svg width="520" height="146" viewBox="0 0 520 146" fill="none" xmlns="http://www.w3.org/2000/svg">
<path d="M124.75 64.0227C124.568 62.1894 123.788 60.7652 122.409 59.75C121.03 58.7348 119.159 58.2273 116.795 58.2273C115.189 58.2273 113.833 58.4545 112.727 58.9091C111.621 59.3485 110.773 59.9621 110.182 60.75C109.606 61.5379 109.318 62.4318 109.318 63.4318C109.288 64.2652 109.462 64.9924 109.841 65.6136C110.235 66.2348 110.773 66.7727 111.455 67.2273C112.136 67.6667 112.924 68.053 113.818 68.3864C114.712 68.7045 115.667 68.9773 116.682 69.2045L120.864 70.2045C122.894 70.6591 124.758 71.2652 126.455 72.0227C128.152 72.7803 129.621 73.7121 130.864 74.8182C132.106 75.9242 133.068 77.2273 133.75 78.7273C134.447 80.2273 134.803 81.947 134.818 83.8864C134.803 86.7348 134.076 89.2045 132.636 91.2955C131.212 93.3712 129.152 94.9848 126.455 96.1364C123.773 97.2727 120.538 97.8409 116.75 97.8409C112.992 97.8409 109.72 97.2652 106.932 96.1136C104.159 94.9621 101.992 93.2576 100.432 91C98.8864 88.7273 98.0758 85.9167 98 82.5682H107.523C107.629 84.1288 108.076 85.4318 108.864 86.4773C109.667 87.5076 110.735 88.2879 112.068 88.8182C113.417 89.3333 114.939 89.5909 116.636 89.5909C118.303 89.5909 119.75 89.3485 120.977 88.8636C122.22 88.3788 123.182 87.7045 123.864 86.8409C124.545 85.9773 124.886 84.9849 124.886 83.8636C124.886 82.8182 124.576 81.9394 123.955 81.2273C123.348 80.5152 122.455 79.9091 121.273 79.4091C120.106 78.9091 118.674 78.4545 116.977 78.0455L111.909 76.7727C107.985 75.8182 104.886 74.3258 102.614 72.2955C100.341 70.2652 99.2121 67.5303 99.2273 64.0909C99.2121 61.2727 99.9621 58.8106 101.477 56.7045C103.008 54.5985 105.106 52.9545 107.773 51.7727C110.439 50.5909 113.47 50 116.864 50C120.318 50 123.333 50.5909 125.909 51.7727C128.5 52.9545 130.515 54.5985 131.955 56.7045C133.394 58.8106 134.136 61.25 134.182 64.0227H124.75Z" fill="white"/>
<path d="M363.841 49V95.5455H354V49H363.841Z" fill="#3B63A8"/>
<path d="M189.886 64.9318H179.932C179.75 63.6439 179.379 62.5 178.818 61.5C178.258 60.4848 177.538 59.6212 176.659 58.9091C175.78 58.197 174.765 57.6515 173.614 57.2727C172.477 56.8939 171.242 56.7045 169.909 56.7045C167.5 56.7045 165.402 57.303 163.614 58.5C161.826 59.6818 160.439 61.4091 159.455 63.6818C158.47 65.9394 157.977 68.6818 157.977 71.9091C157.977 75.2273 158.47 78.0152 159.455 80.2727C160.455 82.5303 161.848 84.2348 163.636 85.3864C165.424 86.5379 167.492 87.1136 169.841 87.1136C171.159 87.1136 172.379 86.9394 173.5 86.5909C174.636 86.2424 175.644 85.7349 176.523 85.0682C177.402 84.3864 178.129 83.5606 178.705 82.5909C179.295 81.6212 179.705 80.5152 179.932 79.2727L189.886 79.3182C189.629 81.4545 188.985 83.5152 187.955 85.5C186.939 87.4697 185.568 89.2348 183.841 90.7955C182.129 92.3409 180.083 93.5682 177.705 94.4773C175.341 95.3712 172.667 95.8182 169.682 95.8182C165.53 95.8182 161.818 94.8788 158.545 93C155.288 91.1212 152.712 88.4015 150.818 84.8409C148.939 81.2803 148 76.9697 148 71.9091C148 66.8333 148.955 62.5152 150.864 58.9545C152.773 55.3939 155.364 52.6818 158.636 50.8182C161.909 48.9394 165.591 48 169.682 48C172.379 48 174.879 48.3788 177.182 49.1364C179.5 49.8939 181.553 51 183.341 52.4545C185.129 53.8939 186.583 55.6591 187.705 57.75C188.841 59.8409 189.568 62.2348 189.886 64.9318Z" fill="white"/>
<path d="M317.5 95.5455H301V49H317.636C322.318 49 326.348 49.9318 329.727 51.7955C333.106 53.6439 335.705 56.303 337.523 59.7727C339.356 63.2424 340.273 67.3939 340.273 72.2273C340.273 77.0758 339.356 81.2424 337.523 84.7273C335.705 88.2121 333.091 90.8864 329.682 92.75C326.288 94.6136 322.227 95.5455 317.5 95.5455ZM310.841 87.1136H317.091C320 87.1136 322.447 86.5985 324.432 85.5682C326.432 84.5227 327.932 82.9091 328.932 80.7273C329.947 78.5303 330.455 75.697 330.455 72.2273C330.455 68.7879 329.947 65.9773 328.932 63.7955C327.932 61.6136 326.439 60.0076 324.455 58.9773C322.47 57.947 320.023 57.4318 317.114 57.4318H310.841V87.1136Z" fill="white"/>
<path d="M420.591 72.9091C420.591 77.9848 419.629 82.303 417.705 85.8636C415.795 89.4242 413.189 92.1439 409.886 94.0227C406.598 95.8864 402.902 96.8182 398.795 96.8182C394.659 96.8182 390.947 95.8788 387.659 94C384.371 92.1212 381.773 89.4015 379.864 85.8409C377.955 82.2803 377 77.9697 377 72.9091C377 67.8333 377.955 63.5152 379.864 59.9545C381.773 56.3939 384.371 53.6818 387.659 51.8182C390.947 49.9394 394.659 49 398.795 49C402.902 49 406.598 49.9394 409.886 51.8182C413.189 53.6818 415.795 56.3939 417.705 59.9545C419.629 63.5152 420.591 67.8333 420.591 72.9091ZM410.614 72.9091C410.614 69.6212 410.121 66.8485 409.136 64.5909C408.167 62.3333 406.795 60.6212 405.023 59.4545C403.25 58.2879 401.174 57.7045 398.795 57.7045C396.417 57.7045 394.341 58.2879 392.568 59.4545C390.795 60.6212 389.417 62.3333 388.432 64.5909C387.462 66.8485 386.977 69.6212 386.977 72.9091C386.977 76.197 387.462 78.9697 388.432 81.2273C389.417 83.4848 390.795 85.197 392.568 86.3636C394.341 87.5303 396.417 88.1136 398.795 88.1136C401.174 88.1136 403.25 87.5303 405.023 86.3636C406.795 85.197 408.167 83.4848 409.136 81.2273C410.121 78.9697 410.614 76.197 410.614 72.9091Z" fill="#3B63A8"/>
<path d="M203 95.5455V49H212.841V68.2045H232.818V49H242.636V95.5455H232.818V76.3182H212.841V95.5455H203Z" fill="white"/>
<path d="M256 95.5455V49H287.364V57.1136H265.841V68.2045H285.75V76.3182H265.841V87.4318H287.455V95.5455H256Z" fill="white"/>
</svg>
