<svg width="170" height="143" viewBox="0 0 170 143" fill="none" xmlns="http://www.w3.org/2000/svg">
<path d="M148.5 132.5V142.5H158.5V132.5H148.5ZM10 132.5H0C0 138.023 4.47715 142.5 10 142.5L10 132.5ZM10 78L3.23201 70.6383L0 73.6097V78H10ZM41 49.5L48.3279 42.6955C44.5831 38.6626 38.2835 38.4136 34.232 42.1383L41 49.5ZM80 91.5L72.6721 98.3045C74.5282 100.303 77.1203 101.457 79.8478 101.499C82.5753 101.54 85.2013 100.466 87.1174 98.5244L80 91.5ZM162.617 22.0244L169.642 14.907L155.407 0.85817L148.383 7.9756L162.617 22.0244ZM148.5 132.5V122.5H10V132.5V142.5H148.5V132.5ZM10 132.5H20V78H10H0V132.5H10ZM10 78L16.768 85.3617L47.768 56.8617L41 49.5L34.232 42.1383L3.23201 70.6383L10 78ZM41 49.5L33.6721 56.3045L72.6721 98.3045L80 91.5L87.3279 84.6955L48.3279 42.6955L41 49.5ZM80 91.5L87.1174 98.5244L162.617 22.0244L155.5 15L148.383 7.9756L72.8826 84.4756L80 91.5ZM148.5 101H138.5V116.75H148.5H158.5V101H148.5ZM148.5 116.75H138.5V132.5H148.5H158.5V116.75H148.5Z" fill="#15233D"/>
</svg>
